<svg width="221" height="285" viewBox="0 0 221 285" fill="none" xmlns="http://www.w3.org/2000/svg">
<path d="M97.529 137.172C97.5212 135.66 97.8092 134.163 98.3743 132.779C98.9393 131.396 99.7686 130.157 100.808 129.143C101.847 128.13 103.073 127.365 104.404 126.9C105.736 126.434 107.144 126.277 108.536 126.44C108.976 126.494 109.413 126.58 109.842 126.7L143.471 95.5593L141.462 83.8575L158.037 78.0544L163.035 96.8073C163.626 99.058 163.53 101.455 162.76 103.641C161.991 105.828 160.589 107.689 158.763 108.947L117.393 137.214C117.393 137.565 117.376 137.917 117.342 138.266C117.191 139.77 116.748 141.222 116.041 142.528C115.334 143.833 114.38 144.963 113.241 145.842C112.102 146.721 110.803 147.331 109.431 147.63C108.059 147.93 106.643 147.913 105.278 147.58C104.881 147.485 104.49 147.364 104.107 147.215C102.192 146.468 100.535 145.104 99.3594 143.309C98.1834 141.513 97.5446 139.372 97.529 137.172Z" fill="#E0B3A0" style="mix-blend-mode:lighten"/>
<path d="M181.136 173.288H137.777C137.777 174.634 93.0894 175.727 93.0894 175.727C92.388 176.297 91.7487 176.952 91.1838 177.678C89.4865 179.865 88.5587 182.63 88.5644 185.484V187.435C88.5655 190.669 89.7552 193.77 91.8721 196.057C93.9891 198.344 96.8599 199.629 99.8536 199.63H181.136C184.13 199.628 187 198.342 189.116 196.055C191.233 193.769 192.423 190.668 192.426 187.435V185.484C192.422 182.25 191.231 179.151 189.115 176.865C186.998 174.579 184.129 173.292 181.136 173.288Z" fill="#383948"/>
<path d="M133.971 199.146H145.712V281.101H133.971V199.146Z" fill="#383948"/>
<path d="M100.555 282.12C100.555 283.655 118.346 282.714 140.293 282.714C162.24 282.714 180.031 283.655 180.031 282.12C180.031 280.586 162.24 268.418 140.293 268.418C118.346 268.418 100.555 280.586 100.555 282.12Z" fill="#383948"/>
<path d="M111.153 271.05L100.082 271.049L94.8142 240.026L111.156 240.027L111.153 271.05Z" fill="#E0B3A0" style="mix-blend-mode:lighten"/>
<path d="M113.978 282.644L78.276 282.643V282.155C78.276 280.183 78.6354 278.231 79.3337 276.41C80.032 274.589 81.0556 272.934 82.3459 271.54C83.6362 270.146 85.168 269.04 86.854 268.286C88.5399 267.531 90.3468 267.143 92.1716 267.143H92.1731L113.978 267.144L113.978 282.644Z" fill="#2F2E41"/>
<path d="M94.5933 251.812L72.5197 198.338C70.6768 193.832 70.473 188.74 71.9489 184.078C73.4249 179.416 76.4723 175.526 80.4842 173.182L128.363 145.446L150.211 143.439L170.364 141.46L170.51 141.726C170.695 142.065 175.029 150.15 172.1 159.016C169.878 165.741 164.099 170.993 154.923 174.628C133.505 183.112 108.764 190.363 99.121 193.086C98.6948 193.204 98.2965 193.417 97.9523 193.713C97.6081 194.009 97.3258 194.38 97.124 194.803C96.9216 195.22 96.8013 195.678 96.7708 196.148C96.7403 196.618 96.8002 197.09 96.9467 197.533L117.454 247.306C117.668 247.937 117.745 248.613 117.679 249.282C117.613 249.95 117.406 250.594 117.074 251.162C116.741 251.73 116.293 252.209 115.762 252.56C115.231 252.911 114.633 253.126 114.014 253.189L98.6903 254.394C98.5602 254.407 98.4307 254.414 98.3018 254.414C97.517 254.414 96.7491 254.168 96.091 253.706C95.4329 253.244 94.9127 252.586 94.5933 251.812Z" fill="#FBFAFB"/>
<path d="M118.379 271.05L107.307 271.049L102.039 240.026L118.381 240.027L118.379 271.05Z" fill="#E0B3A0" style="mix-blend-mode:lighten"/>
<path d="M121.203 282.644L85.5012 282.643V282.155C85.5012 280.183 85.8606 278.231 86.5589 276.41C87.2572 274.589 88.2807 272.934 89.5711 271.54C90.8614 270.146 92.3932 269.04 94.0792 268.286C95.7651 267.531 97.572 267.143 99.3968 267.143H99.3983L121.204 267.144L121.203 282.644Z" fill="#2F2E41"/>
<path d="M102.722 254.739L80.648 201.265C78.8051 196.758 78.6013 191.667 80.0772 187.005C81.5532 182.343 84.6006 178.453 88.6125 176.109L136.491 148.373L158.339 146.366L174.124 144.887L174.122 144.653C174.308 144.992 178.641 153.077 175.712 161.943C173.49 168.668 172.227 173.92 163.051 177.555C141.634 186.039 116.892 193.29 107.249 196.013C106.823 196.13 106.425 196.344 106.081 196.64C105.736 196.936 105.454 197.307 105.252 197.73C105.05 198.147 104.93 198.605 104.899 199.075C104.869 199.545 104.928 200.017 105.075 200.46L125.582 250.233C125.796 250.864 125.873 251.54 125.808 252.209C125.742 252.877 125.535 253.521 125.202 254.089C124.87 254.657 124.421 255.136 123.89 255.487C123.36 255.838 122.761 256.053 122.142 256.116L106.819 257.321C106.688 257.334 106.559 257.341 106.43 257.341C105.645 257.341 104.877 257.095 104.219 256.633C103.561 256.171 103.041 255.513 102.722 254.739Z" fill="#FBFAFB"/>
<path d="M144.321 145.862C143.262 145.054 128.064 153.667 125.355 146.838C137.999 112.69 129.286 97.9443 137.031 78.3622C138.395 74.9847 140.45 71.9852 143.041 69.589C145.633 67.1929 148.693 65.4624 151.993 64.5277L172.087 63.432L172.191 63.4863C176.726 65.8856 180.424 69.7996 182.737 74.6481C185.05 79.4965 185.856 85.0212 185.033 90.403C184.962 111.714 173.159 127.968 177.286 143.426C177.459 144.072 177.509 144.75 177.434 145.417C177.359 146.085 177.16 146.73 176.849 147.312C176.547 147.876 176.142 148.366 175.658 148.754C175.174 149.141 174.621 149.417 174.035 149.565L147.502 145.742C146.882 145.901 146.238 145.916 145.612 145.785C144.987 145.654 144.394 145.381 143.874 144.983L144.321 145.862Z" fill="#2F2E41"/>
<path d="M165.381 55.324C153.13 55.324 143.199 44.5954 143.199 31.361C143.199 18.1265 153.13 7.3979 165.381 7.3979C177.632 7.3979 187.563 18.1265 187.563 31.361C187.563 44.5954 177.632 55.324 165.381 55.324Z" fill="#E0B3A0" style="mix-blend-mode:lighten"/>
<path d="M172.447 53.356C171.268 53.9131 168.855 43.768 169.936 41.7388C171.544 38.7212 171.449 38.7429 172.516 36.7464C173.583 34.75 173.822 32.0173 172.44 30.2607C171.058 28.504 167.859 28.737 167.228 30.9395C167.634 26.7561 163.804 23.3933 160.01 22.4483C156.215 21.5033 152.213 22.09 148.398 21.249C143.971 20.2731 139.364 16.2637 141.13 11.004C141.434 10.1283 141.887 9.3225 142.468 8.62917C144.509 6.15007 147.364 5.0915 150.156 4.06795C155.963 1.93862 161.929 -0.21745 168.058 0.0176322C178.128 0.403839 187.647 7.92396 191.039 18.1738C191.462 19.4527 191.789 20.766 192.018 22.1012C194.121 34.3205 187.553 46.3734 176.885 51.0265L172.447 53.356Z" fill="#3D2814"/>
<path d="M56.1197 91.8905L53.576 108.207C53.5477 108.389 53.5662 108.576 53.6297 108.747L73.5861 162.615C73.6651 162.829 73.8095 163.006 73.9951 163.118C74.1806 163.231 74.3963 163.271 74.6059 163.232C74.8156 163.193 75.0066 163.078 75.1472 162.906C75.2877 162.733 75.3693 162.514 75.3782 162.284L76.2236 140.637C76.2292 140.494 76.2062 140.35 76.156 140.217L57.8979 91.6792C57.8218 91.4767 57.6865 91.3066 57.5127 91.1946C57.3389 91.0827 57.1361 91.035 56.9349 91.0589C56.7338 91.0828 56.5454 91.177 56.3982 91.327C56.2511 91.4771 56.1534 91.675 56.1197 91.8905Z" fill="#3F3D56"/>
<path d="M57.5326 93.1431L55.1154 107.161L72.8252 156.317L75.1245 140.504L57.5326 93.1431Z" fill="#2BAAC8"/>
<path d="M135.016 162.365C134.58 164.202 77.3717 166.191 76.7785 165.635C76.2462 164.923 75.785 164.152 75.4024 163.336C74.8029 162.179 74.2478 161.019 74.2478 161.019L75.1881 141.474L131.542 134.968C131.542 134.968 134.035 151.278 134.818 158.771C134.995 159.959 135.061 161.163 135.016 162.365Z" fill="#3F3D56"/>
<path opacity="0.1" d="M82.5613 143.542L82.5563 160.38L107.481 158.466L106.379 141.712L82.5613 143.542Z" fill="black"/>
<path opacity="0.1" d="M115.041 146.459L114.891 146.438L116.067 153.597L129.915 152.533L129.442 145.353L115.041 146.459Z" fill="black"/>
<path opacity="0.1" d="M135.016 162.365C134.58 164.202 77.3719 166.191 76.7786 165.635C76.2464 164.923 75.7851 164.152 75.4025 163.336L134.818 158.771C134.995 159.959 135.061 161.163 135.016 162.365Z" fill="black"/>
<path d="M157.987 133.178L109.729 142.907C109.609 143.233 109.473 143.553 109.321 143.864C108.666 145.197 107.758 146.365 106.657 147.294C105.555 148.223 104.286 148.891 102.93 149.255C101.569 149.625 100.15 149.676 98.769 149.406C97.3879 149.136 96.0761 148.55 94.9216 147.688C92.8302 146.137 91.3672 143.78 90.8326 141.101C90.2979 138.422 90.7321 135.624 92.046 133.279C93.36 130.935 95.4542 129.223 97.8994 128.493C100.345 127.763 102.956 128.072 105.197 129.355C105.588 129.581 105.963 129.836 106.321 130.119L148.236 114.651L150.381 102.977L167.767 104.22L165.966 123.789C165.747 126.073 164.853 128.22 163.416 129.911C161.978 131.602 160.075 132.748 157.987 133.178Z" fill="#E0B3A0" style="mix-blend-mode:lighten"/>
<path d="M168.356 112.948L143.093 103.978L148.986 85.6987C149.769 83.2715 151.32 81.2212 153.367 79.9102C155.413 78.5992 157.823 78.1119 160.17 78.5345C162.544 78.9619 164.698 80.2923 166.244 82.2855C167.789 84.2786 168.624 86.8031 168.597 89.403L168.356 112.948Z" fill="#2F2E41"/>
<path d="M8.09494 283.6H220.004C220.152 283.6 220.293 283.537 220.397 283.424C220.502 283.311 220.56 283.159 220.56 282.999C220.56 282.84 220.502 282.687 220.397 282.574C220.293 282.462 220.152 282.398 220.004 282.398H8.09494C7.94743 282.398 7.80597 282.462 7.70166 282.574C7.59735 282.687 7.53876 282.84 7.53876 282.999C7.53876 283.159 7.59735 283.311 7.70166 283.424C7.80597 283.537 7.94743 283.6 8.09494 283.6Z" fill="#CBCBCB"/>
<path d="M33.8127 265.124C23.649 270.807 19.1301 283.179 19.1301 283.179C19.1301 283.179 31.0898 286.338 41.2535 280.656C51.4172 274.974 55.9361 262.601 55.9361 262.601C55.9361 262.601 43.9764 259.442 33.8127 265.124Z" fill="#F1F1F1"/>
<path d="M37.0629 269.217C30.9978 279.701 19.217 283.566 19.217 283.566C19.217 283.566 17.2695 270.433 23.3346 259.949C29.3997 249.465 41.1806 245.6 41.1806 245.6C41.1806 245.6 43.1281 258.733 37.0629 269.217Z" fill="#F1F1F1"/>
<path d="M0.55619 283.817H63.9622C64.1097 283.817 64.2512 283.753 64.3555 283.641C64.4598 283.528 64.5184 283.375 64.5184 283.216C64.5184 283.056 64.4598 282.903 64.3555 282.791C64.2512 282.678 64.1097 282.615 63.9622 282.615H0.55619C0.408676 282.615 0.26722 282.678 0.16291 282.791C0.0586014 282.903 0 283.056 0 283.216C0 283.375 0.0586014 283.528 0.16291 283.641C0.26722 283.753 0.408676 283.817 0.55619 283.817Z" fill="#CBCBCB"/>
</svg>
